<svg xmlns="http://www.w3.org/2000/svg" viewBox="0 0 44.44 30.16"><defs><style>.cls-1{fill:#fff;}</style></defs><title>icon2</title><g id="Layer_2" data-name="Layer 2"><g id="_1200px" data-name="1200px"><path class="cls-1" d="M26.91,19V3.79A3.8,3.8,0,0,0,23.11,0H3.79A3.8,3.8,0,0,0,0,3.79V19a3.8,3.8,0,0,0,3.79,3.79H6.21v7.41l10.36-7.41h6.55A3.8,3.8,0,0,0,26.91,19M8.76,13.09H5.81V16H8.76Zm3,2.95h2.95V13.09H11.77Zm6,0h2.95V13.09H17.72Zm10.67-7.3h13a.5.5,0,0,1,.49.49v12a.5.5,0,0,1-.49.49H37v3.51l-4.9-3.51H27.58a5.31,5.31,0,0,1-2.65,2.15l-.16.06a3,3,0,0,0,1.32.31h5.2l8.22,5.89V24.27h1.92a3,3,0,0,0,3-3v-12a3,3,0,0,0-3-3h-13Zm8.89,3.88a3.15,3.15,0,0,0-3.41-3.05,3.69,3.69,0,0,0-2.61.94,3.25,3.25,0,0,0-1,2.57h2.21l.05-.37a1.2,1.2,0,0,1,1.28-1c.72,0,1.56.58,1.07,1.35-.33.52-1.1,1-1.52,1.53a4.2,4.2,0,0,0-.86,3.12h2.26A3.07,3.07,0,0,1,35.12,16c.42-.61,1.15-1,1.57-1.61a3,3,0,0,0,.59-1.74M34.74,19H32.48v1.68h2.26ZM3.79,2.52H23.11a1.29,1.29,0,0,1,1.28,1.28V19a1.28,1.28,0,0,1-1.28,1.28H15.76l-7,5v-5H3.79A1.29,1.29,0,0,1,2.52,19V3.79A1.29,1.29,0,0,1,3.79,2.52"/></g></g></svg>