<svg xmlns="http://www.w3.org/2000/svg" viewBox="0 0 59.82 59.81"><defs><style>.cls-1{fill:#231f20;}</style></defs><title>BASKETBALL</title><g id="Layer_2" data-name="Layer 2"><g id="Layer_1-2" data-name="Layer 1"><path class="cls-1" d="M55.94,0H4C1.75,0,0,1.5,0,3.37v32c0,1.87,1.75,3.37,4,3.37H15.61V39h0l.12,1.25h0l1.5,12.49h0l.12,1h0l.62,5a1.33,1.33,0,0,0,1.25,1.12h.12a1.46,1.46,0,0,0,1.12-1.37l-.25-2.5,3.62,3.5c.12.12.25.25.37.25H25a.46.46,0,0,0,.37-.12h.12c.12-.12.25-.12.37-.25L30,54.82l4.12,4.5c.12.12.25.25.37.25a.75.75,0,0,0,.5.12h.62c.12,0,.25-.12.37-.25l3.62-3.5-.25,2.5a1.24,1.24,0,0,0,1.12,1.37h.12a1.33,1.33,0,0,0,1.25-1.12l.62-5h0l.12-1,1.5-12.49h0L44.2,39h0v-.25H55.82c2.25,0,4-1.5,4-3.37v-32C59.94,1.5,58.19,0,55.94,0ZM17.36,32.59h3.37l-.37.5-2.25,3.25h-.37ZM35.21,56.82l-1.62-1.87-1.87-2,4.12-4.37,3.5,4.37-1.62,1.5Zm-10.49,0-2.25-2.25-1.75-1.75,3.5-4.37.5.62,3.5,3.87-1.87,2ZM19.1,39.33l.37-.62h8.37l.62.75L27,41.33l-2.87,3.5L23.35,44Zm21.73,0L36.59,44l-.75.87L33,41.08l-1.37-1.75.62-.75h8.37Zm-6.62,7.24L30,51.2l-4.25-4.5L30,41.46l.75,1Zm-.12-10.36,2.5-3.12,2.12,3.12Zm-8.37,0h-4.5l2.12-3.12Zm5.24,0H29l-3-3.75h7.87ZM22.48,46.7l-3,3.75-1-8,1.87,2Zm18,3.75-3-3.75,3.87-4.25Zm1.62-14.24h-.37L39.46,33l-.37-.5h3.37Zm-1.87-6.12H19.6V18.48H40.08V30.09Zm17.23,5.24c0,.37-.62.87-1.5.87H44.7l.5-3.75h1.5a1.25,1.25,0,1,0,0-2.5H42.83V17.11a1.18,1.18,0,0,0-1.25-1.25H18.48a1.18,1.18,0,0,0-1.25,1.25V30H13.36a1.25,1.25,0,1,0,0,2.5h1.5l.5,3.75H4.12c-.87,0-1.5-.5-1.5-.87v-32c0-.37.62-.87,1.5-.87H55.94c.87,0,1.5.5,1.5.87Z"/></g></g></svg>