<svg xmlns="http://www.w3.org/2000/svg" viewBox="0 0 57.29 57.24"><title>Asset 13</title><g id="Layer_2" data-name="Layer 2"><g id="Layer_1-2" data-name="Layer 1"><path d="M28.57,3.84c-.16.2-.28.38-.43.52Q15.91,16.6,3.66,28.83A1.52,1.52,0,0,0,3.17,30q0,12.71,0,25.42a1.58,1.58,0,0,1-.92,1.67A1.61,1.61,0,0,1,0,55.51c0-5,0-9.9,0-14.85C0,36.78,0,32.91,0,29a2.3,2.3,0,0,1,.72-1.77Q14,14,27.27.73A1.65,1.65,0,0,1,30,.71L56.64,27.34a2,2,0,0,1,.65,1.54c0,8.87,0,17.73,0,26.6A1.62,1.62,0,0,1,55,57.09a1.52,1.52,0,0,1-.88-1.57c0-3.94,0-7.87,0-11.81,0-4.62,0-9.24,0-13.86a1.34,1.34,0,0,0-.33-.86Q41.33,16.52,28.86,4.07C28.8,4,28.73,4,28.57,3.84Z"/><path d="M35,52.54H22.29c0,.47,0,.94,0,1.4a1.62,1.62,0,0,1-1.74,1.76c-1.47,0-2.94,0-4.41,0a1.62,1.62,0,0,1-1.81-1.86q0-9,0-18c0-.27,0-.53,0-.88-.56,0-1.07,0-1.58,0a1.58,1.58,0,0,1,0-3.15c.51,0,1,0,1.59,0,0-1,0-2,0-2.93a1.64,1.64,0,0,1,1.87-1.86h25A1.6,1.6,0,0,1,43,28.83c0,1,0,1.94,0,3,.52,0,1,0,1.5,0a1.58,1.58,0,1,1,0,3.16H43v.86q0,8.92,0,17.83c0,1.47-.55,2-2,2H37c-1.44,0-2-.57-2-2C35,53.35,35,53,35,52.54ZM39.76,30.3H17.55V52.48h1.54c0-.5,0-1,0-1.4a1.59,1.59,0,0,1,1.69-1.74q7.86,0,15.72,0a1.6,1.6,0,0,1,1.7,1.73c0,.47,0,.94,0,1.42h1.56Z"/><path d="M28.66,43H21a1.63,1.63,0,0,1-1.86-1.86q0-3.7,0-7.39A1.63,1.63,0,0,1,21,31.85H36.37a1.62,1.62,0,0,1,1.83,1.84q0,3.73,0,7.46A1.62,1.62,0,0,1,36.36,43Zm6.3-3.2V35.05H22.33v4.71Z"/><path d="M21.53,44.57c.29,0,.58,0,.87,0a1.58,1.58,0,0,1,1.47,1.49,1.51,1.51,0,0,1-1.29,1.63,10.12,10.12,0,0,1-2.16,0,1.53,1.53,0,0,1-1.33-1.61,1.6,1.6,0,0,1,1.51-1.52C20.91,44.55,21.22,44.57,21.53,44.57Z"/><path d="M35.78,44.57c.31,0,.62,0,.93,0a1.59,1.59,0,0,1,1.48,1.49,1.53,1.53,0,0,1-1.31,1.63,10,10,0,0,1-2.1,0,1.53,1.53,0,0,1-1.36-1.65A1.59,1.59,0,0,1,35,44.57c.27,0,.54,0,.81,0Z"/></g></g></svg>