<svg xmlns="http://www.w3.org/2000/svg" viewBox="0 0 74.64 74.61"><defs><style>.cls-1{fill:#00a99d;}</style></defs><title>Asset 4</title><g id="Layer_2" data-name="Layer 2"><g id="Layer_1-2" data-name="Layer 1"><path class="cls-1" d="M29,74.25a1.24,1.24,0,0,0,1.76,0L66.78,38.19a1.24,1.24,0,0,0,.36-.88V16.51l.7-.21a6,6,0,0,0,4-7.48l0-.14L71.19,7a3.51,3.51,0,0,1,2.22-4.43l.25-.07A1.24,1.24,0,1,0,73.12,0h-.06a6,6,0,0,0-4.36,7.27q.06.22.13.44l.57,1.72a3.5,3.5,0,0,1-2.22,4.42h0V12.44a5,5,0,0,0-5-5H36.06a1.24,1.24,0,0,0-.9.37L.35,43.9a1.24,1.24,0,0,0,0,1.74Zm7.62-64.3H62.17a2.49,2.49,0,0,1,2.49,2.49v2.24l-3.28,1a6.17,6.17,0,1,0,.79,3c0-.2,0-.4-.06-.59l2.55-.78V36.79L29.84,71.61,3,44.75ZM54.77,19a1.24,1.24,0,0,0,1.55.82h0l3.35-1a3.74,3.74,0,1,1-.73-2.38l-3.35,1A1.24,1.24,0,0,0,54.77,19Z"/><path class="cls-1" d="M56,39.79a3.73,3.73,0,0,0-3.73-3.73H17.41a3.73,3.73,0,1,0,0,7.46H52.22A3.73,3.73,0,0,0,56,39.79Zm-39.79,0a1.24,1.24,0,0,1,1.24-1.24H52.22a1.24,1.24,0,1,1,0,2.49H17.41A1.24,1.24,0,0,1,16.16,39.79Z"/><path class="cls-1" d="M34.82,33.58a6.22,6.22,0,1,0-6.22-6.22A6.22,6.22,0,0,0,34.82,33.58Zm0-9.95a3.73,3.73,0,1,1-3.73,3.73A3.73,3.73,0,0,1,34.82,23.63Z"/><path class="cls-1" d="M34.82,58.44a6.22,6.22,0,1,0-6.22-6.22A6.22,6.22,0,0,0,34.82,58.44Zm0-9.95a3.73,3.73,0,1,1-3.73,3.73A3.73,3.73,0,0,1,34.82,48.5Z"/></g></g></svg>