<svg xmlns="http://www.w3.org/2000/svg" viewBox="0 0 33.62 40.08"><defs><style>.cls-1{fill:none;stroke:#fff;stroke-miterlimit:10;stroke-width:2px;}.cls-2{fill:#fff;}</style></defs><title>icon1</title><g id="Layer_2" data-name="Layer 2"><g id="_1200px" data-name="1200px"><path class="cls-1" d="M16.85,1a8.83,8.83,0,1,0,8.83,8.83A8.84,8.84,0,0,0,16.85,1"/><path class="cls-1" d="M25,21.81H8.7A7.7,7.7,0,0,0,1,29.51v7.12H9.33a8.07,8.07,0,0,1-.54-2.75,7.93,7.93,0,0,1,8-7.79,7.9,7.9,0,0,1,8,7.79,7,7,0,0,1-.54,2.75h8.33V29.51A7.48,7.48,0,0,0,25,21.81"/><path class="cls-2" d="M16.85,28.68a5.7,5.7,0,1,0,5.7,5.7,5.69,5.69,0,0,0-5.7-5.7m-.8,8-2.29-2.25.88-.88,1.4,1.4L19,32.05l.88.88Z"/></g></g></svg>