<svg xmlns="http://www.w3.org/2000/svg" viewBox="0 0 66.52 60.74"><defs><style>.cls-1{fill:#4d4d4d;}</style></defs><title>Asset 4</title><g id="Layer_2" data-name="Layer 2"><g id="Layer_1-2" data-name="Layer 1"><path class="cls-1" d="M65.81,30.26l-9.23-8.64V.44H43.3V9.3L33.26,0,.71,30.26a2.19,2.19,0,0,0,3,3.25l1.85-1.7V60.74H61V31.81l1.77,1.7a2.58,2.58,0,0,0,1.62.59,2.18,2.18,0,0,0,1.4-3.84ZM52.16,4.87V17.49l-4.43-4.13V4.87Zm-13.36,37V56.24H27.73V41.85Zm.07-4.43H27.65a4.36,4.36,0,0,0-4.35,4.35V56.24H10V27.68L33.26,6.05,56.58,27.68V56.24H43.3V41.77A4.43,4.43,0,0,0,38.87,37.42Z"/></g></g></svg>