<svg xmlns="http://www.w3.org/2000/svg" viewBox="0 0 80.28 80.28"><defs><style>.cls-1{fill:none;}</style></defs><title>landscape</title><g id="Layer_2" data-name="Layer 2"><g id="Layer_1-2" data-name="Layer 1"><path d="M46.77,41.7a1.45,1.45,0,0,0-.24,1c0,.48,0,.72.24,1a.89.89,0,0,0,.24.72l.48,1.21-1,.72a25.62,25.62,0,0,0-2.17,2.65h0c-.24.48-.24,1-.48,1.45H67.26v-.24a1.82,1.82,0,0,0,.24-1A2.58,2.58,0,0,0,67,47.73,2.08,2.08,0,0,0,65.57,47l-2.41-.24,1.21-2.17a.89.89,0,0,0,.24-.72h0c0-.24.24-.24.24-.72a5.1,5.1,0,0,0-.72-1.69,2.74,2.74,0,0,0-1.93-.72h-.48l-2.17.48.24-2.17v-.24h0a3.45,3.45,0,0,0-1.21-2.65h0A3.85,3.85,0,0,0,56.17,35a4.8,4.8,0,0,0-1.93-2.89,4.1,4.1,0,0,1,1.69-.24A7.78,7.78,0,0,1,61,33.75h0a7.35,7.35,0,0,1,1.93,3.86,6.43,6.43,0,0,1,3.37,1.69A5.69,5.69,0,0,1,68,43.15a2.17,2.17,0,0,1-.24,1.21,4.32,4.32,0,0,1,1.69,1.21,6.1,6.1,0,0,1,1.45,3.62,7,7,0,0,1-.48,2.17A4.91,4.91,0,0,1,68.95,53l-1,.48H40l.24-1.69a11.52,11.52,0,0,1,1.45-4.34h0a20.11,20.11,0,0,1,1.93-2.89v-.24a4.1,4.1,0,0,1-.24-1.69v-1h3.37Z"/><polygon points="53.28 51.83 56.41 51.83 56.41 67.98 57.62 67.98 57.62 69.67 52.31 69.67 52.31 67.98 53.28 67.98 53.28 51.83"/><path d="M25.07,16.39h0a12,12,0,0,1,3.13-4.58h0A11,11,0,0,1,35,9.4a10,10,0,0,1,7.23,3.13h0A10.42,10.42,0,0,1,45.32,19a8.42,8.42,0,0,1,5.79,2.41h0a8.42,8.42,0,0,1,2.41,5.79,6,6,0,0,1-.24,2.17h0v.24a6.58,6.58,0,0,1,2.89,2.17,7.94,7.94,0,0,1,1.93,5.3,14.11,14.11,0,0,1-.48,3.13h0a10.7,10.7,0,0,1-1.93,2.65l-1.21.48H9.64l.24-1.93a17.08,17.08,0,0,1,2.17-6.75,22.92,22.92,0,0,1,3.62-4.82c-.24-.24-.24-.72-.48-1a9,9,0,0,1-.24-2.41,10.86,10.86,0,0,1,2.89-7.23A10.86,10.86,0,0,1,25.07,16.39Zm.48,3.37a.84.84,0,0,1-.48-.24,6.93,6.93,0,0,0-4.82,2.17,6.07,6.07,0,0,0-2.17,4.82c0,.48.24,1,.24,1.45.24.72.24,1.21.72,1.69l.48,1-1,1a17.72,17.72,0,0,0-3.86,4.58c-.48,1.21-1,2.65-1.45,3.86H54c.24-.24.48-.72.72-1h0A5.31,5.31,0,0,0,55,37.12,4.58,4.58,0,0,0,53.76,34a4.47,4.47,0,0,0-2.89-1.69l-2.41-.24,1.21-2.17a1.84,1.84,0,0,0,.48-1.21h0a3.06,3.06,0,0,0,.24-1.45,6.1,6.1,0,0,0-1.45-3.62h0a5.47,5.47,0,0,0-3.86-1.45H43.87l-2.17.72.24-2.41v-.72A7.32,7.32,0,0,0,40,14.71h0A8,8,0,0,0,35,12.54a7.08,7.08,0,0,0-4.58,1.69h0a7.61,7.61,0,0,0-2.65,4.1L27.48,20,26,19.77Z"/><polygon points="30.37 41.7 35.68 41.7 35.68 67.98 37.61 67.98 37.61 70.87 28.69 70.87 28.69 67.98 30.37 67.98 30.37 41.7"/><path d="M22.66,26.28a1.07,1.07,0,0,1-1.45.72,1.06,1.06,0,0,1-1-1.45,4.29,4.29,0,0,1,1.93-2.65,5.08,5.08,0,0,1,3.13-1.21,3.06,3.06,0,0,1,1.45.24,1.32,1.32,0,0,1,1,1.45,1.25,1.25,0,0,1-1.69.72h-.72a2.6,2.6,0,0,0-1.69.72A1.63,1.63,0,0,0,22.66,26.28Z"/><path d="M32.3,19.29a1.5,1.5,0,0,1-1.45,1c-.72-.24-1.21-1-1-1.45a6.92,6.92,0,0,1,1.93-3.13,5.53,5.53,0,0,1,3.37-1h1.45a1.61,1.61,0,0,1,1,1.69c-.24.48-1,1-1.45.72h-1a5.67,5.67,0,0,0-1.93.48A3.89,3.89,0,0,0,32.3,19.29Z"/><rect class="cls-1" width="80.28" height="80.28"/></g></g></svg>