<svg xmlns="http://www.w3.org/2000/svg" viewBox="0 0 52.55 61.96"><title>Asset 14</title><g id="Layer_2" data-name="Layer 2"><g id="Layer_1-2" data-name="Layer 1"><path d="M5.17,0H47.52c.13,0,.25.1.38.13a5.75,5.75,0,0,1,4.51,4.53,10,10,0,0,1,.13,2.17q0,26.68,0,53.35c0,1.44-.34,1.77-1.79,1.77H1.88c-.24,0-.49,0-.73,0a1.16,1.16,0,0,1-1.1-1,4.77,4.77,0,0,1,0-.78Q0,41.75,0,23.36q0-8.5,0-17A6.1,6.1,0,0,1,4.2.3ZM50,59.35c0-.25,0-.43,0-.61q0-26.29,0-52.57a3.46,3.46,0,0,0-3.7-3.6H6.33A3.47,3.47,0,0,0,2.61,6.33q0,25.68,0,51.36c0,.54,0,1.08,0,1.64h8.76c0-.23,0-.41,0-.59q0-19.54,0-39.08c0-1.51.35-1.86,1.84-1.86H39.57c1.38,0,1.76.38,1.76,1.76q0,19.57,0,39.14c0,.21,0,.42,0,.65Zm-25,0V20.44H14V59.35Zm13.69,0V20.44h-11V59.35Z"/><path d="M17.87,12.65h3.51a1.44,1.44,0,0,1,.6,0c.23.12.54.31.59.53.08.37-.21.59-.58.6-.6,0-1.21,0-1.81,0H17.45c-.67,0-.91-.25-.91-.92,0-2.46,0-4.91,0-7.37,0-.45.08-.84.61-.86s.69.38.69.85q0,3.26,0,6.52C17.84,12.21,17.86,12.39,17.87,12.65Z"/><path d="M28.92,8.12c0,1.65,0,3.19,0,4.74,0,.18.06.41,0,.53s-.41.49-.62.49a.79.79,0,0,1-.58-.51,14.48,14.48,0,0,1,0-1.87c0-1.06,0-2.12,0-3.15-.48-.24-1.27.15-1.26-.62s.79-.37,1.27-.58c0-.31,0-.62,0-.94a2.11,2.11,0,0,1,3.13-1.83c.17.08.38.37.35.48a1,1,0,0,1-.49.44,1.35,1.35,0,0,1-.54,0c-.94,0-1.23.28-1.18,1.21l0,.59h1.43c.38,0,.73.07.71.53s-.34.49-.7.48Z"/><path d="M32.79,8.36l-1.11-.28c.22-.32.41-.65.66-.95s.67-.75,1-1.11c.1-.1.3-.21.4-.17s.18.24.19.39c0,.3,0,.6,0,1a6.86,6.86,0,0,1,1.27,0c.24,0,.59.28.63.47.07.38-.26.53-.64.52H34c0,1.41,0,2.75,0,4.09,0,.17.3.44.49.47s.68-.09,1,0,.43.26.64.4c-.13.19-.24.51-.41.55a4.41,4.41,0,0,1-1.48.16,1.5,1.5,0,0,1-1.46-1.68c0-1.07,0-2.14,0-3.2C32.79,8.78,32.79,8.56,32.79,8.36Z"/><path d="M46.6,36c0,.46,0,.92,0,1.39a1.28,1.28,0,0,1-2.55.08c0-1,0-1.93,0-2.89a1.28,1.28,0,0,1,2.55,0C46.62,35.08,46.6,35.54,46.6,36Z"/><path d="M46.59,28c0,.48,0,1,0,1.45a1.17,1.17,0,0,1-1.23,1.16A1.2,1.2,0,0,1,44,29.45c0-1,0-1.94,0-2.9a1.2,1.2,0,0,1,1.33-1.12,1.18,1.18,0,0,1,1.21,1.17c0,.46,0,.93,0,1.39Z"/><path d="M23.9,10.54q0-1.33,0-2.65c0-.4.1-.75.57-.76s.69.33.69.75c0,1.81,0,3.62,0,5.43a.57.57,0,0,1-.65.62.58.58,0,0,1-.61-.67c0-.9,0-1.81,0-2.71Z"/><path d="M24.43,5.91c-.22-.27-.62-.56-.6-.8a1.06,1.06,0,0,1,.73-.68.66.66,0,0,1,.86.61C25.44,5.42,25,5.81,24.43,5.91Z"/></g></g></svg>