<svg xmlns="http://www.w3.org/2000/svg" viewBox="0 0 82.84 60.38"><defs><style>.cls-1{fill:#4d4d4d;}</style></defs><title>Asset 5</title><g id="Layer_2" data-name="Layer 2"><g id="Layer_1-2" data-name="Layer 1"><path class="cls-1" d="M16.85,57.26c0,.63,0,1.12,0,1.6a1.37,1.37,0,0,1-1.46,1.51q-7,0-13.95,0c-1,0-1.43-.6-1.43-1.71q0-7.72,0-15.44c0-2.13,0-4.27,0-6.4,0-1.19.52-1.71,1.71-1.71H14.87c1.56,0,2,.41,2,2,0,.25,0,.51,0,.84h5a1,1,0,0,0,.49-.16A19,19,0,0,1,33.22,35.1c.11,0,.23,0,.41,0V25a20.85,20.85,0,0,1-3.49.2,3.9,3.9,0,0,1-3.37-3.25,4,4,0,0,1,1.76-4.27c3-2.09,6-4.13,9-6.2L53.48.58c1.13-.77,1.39-.78,2.52,0L80.6,17.4c2.15,1.47,2.81,3.64,1.73,5.67a4.59,4.59,0,0,1-5.87,1.88l-.66-.26v1q0,12.11,0,24.21c0,1.63-.4,2.12-2,2A3.42,3.42,0,0,0,71,53.08a53,53,0,0,1-5.78,5.06,13,13,0,0,1-7.72,2.22q-16.05,0-32.11,0a12.12,12.12,0,0,1-6.18-1.72Zm19.7-8.17h36.4a2.77,2.77,0,0,0,0-.32Q73,36,73,23.25a1.38,1.38,0,0,0-.56-.94c-5.67-3.93-11.36-7.82-17-11.74a.9.9,0,0,0-1.22,0c-5.69,3.94-11.41,7.85-17.1,11.8a1.47,1.47,0,0,0-.54,1c0,3.65,0,7.31,0,11,0,.25,0,.5.06.77h1c1.75,0,3.52-.11,5.26.07a5.55,5.55,0,0,1,4.86,6,5.63,5.63,0,0,1-5.63,5.18c-1.83,0-3.67,0-5.54,0ZM16.85,40.72c0,4.35,0,8.56,0,12.76a1,1,0,0,0,.44.73c1.11.71,2.23,1.38,3.37,2a9.12,9.12,0,0,0,4.59,1.3c10.85,0,21.7.06,32.54,0,4.29,0,7.52-2.27,10.27-5.58H35.53c-1.38,0-1.84-.46-1.84-1.84s0-2.49,0-3.78H32.61c-1.09,0-1.73-.54-1.73-1.42s.64-1.38,1.76-1.38h9.21a2.82,2.82,0,1,0-.05-5.61c-3.25,0-6.49,0-9.74,0a15.94,15.94,0,0,0-8.5,2.35,3.53,3.53,0,0,1-1.64.44C20.27,40.76,18.61,40.72,16.85,40.72ZM14,38H2.88V57.52H14ZM78.29,22.63c.83-.1,1.41-.37,1.65-1.12a1.37,1.37,0,0,0-.71-1.63l-.36-.24q-11.72-8-23.43-16.05a1,1,0,0,0-1.37,0q-11.78,8.1-23.58,16.15c-.17.12-.41.2-.48.36-.19.45-.54,1-.4,1.39a1.69,1.69,0,0,0,1.18.93A2.89,2.89,0,0,0,32.55,22Q43,14.82,53.45,7.62c1.17-.81,1.41-.81,2.59,0q10.37,7.13,20.74,14.25A11.91,11.91,0,0,0,78.29,22.63Z"/><path class="cls-1" d="M50.53,38.07c0-2.13,0-4.27,0-6.4A1.53,1.53,0,0,0,50,30.4a6.92,6.92,0,0,1-1.36-8.57A7,7,0,0,1,61.76,25.5a6.63,6.63,0,0,1-2.25,4.87,1.62,1.62,0,0,0-.56,1.36c0,4.24,0,8.47,0,12.71,0,1.44-.44,1.88-1.88,1.89H52.35c-1.36,0-1.81-.47-1.81-1.86q0-3.2,0-6.4Zm5.62,5.41c0-.36,0-.67,0-1,0-3.94,0-7.89,0-11.83a2.09,2.09,0,0,1,1-2A4.06,4.06,0,0,0,58.76,24a4.21,4.21,0,0,0-8,0,4.08,4.08,0,0,0,1.66,4.76,2,2,0,0,1,.95,1.82c0,4,0,8.06,0,12.09,0,.28,0,.56,0,.84Z"/></g></g></svg>