<svg xmlns="http://www.w3.org/2000/svg" viewBox="0 0 9.24 15.38"><title>location</title><g id="Layer_2" data-name="Layer 2"><g id="Layer_1-2" data-name="Layer 1"><path d="M4.6,15.38,2.46,10.82l-2-4.29a4.55,4.55,0,0,1,.74-5,4.66,4.66,0,0,1,5-1.23,4.58,4.58,0,0,1,3,4,4.24,4.24,0,0,1-.38,2.08Q6.79,10.8,4.7,15.21ZM4.6,14l.09-.14C5.9,11.32,7.13,8.75,8.33,6.16a3.66,3.66,0,0,0,.23-2.52,3.85,3.85,0,0,0-3-3A3.86,3.86,0,0,0,1.46,2.06a3.81,3.81,0,0,0-.51,4.2c.6,1.36,1.26,2.7,1.9,4Z"/><path d="M6.81,4.41a2.2,2.2,0,1,1-2.2-2.2A2.21,2.21,0,0,1,6.81,4.41Zm-.59,0A1.61,1.61,0,1,0,4.61,6,1.6,1.6,0,0,0,6.22,4.39Z"/></g></g></svg>