<svg xmlns="http://www.w3.org/2000/svg" viewBox="0 0 37.85 63.02"><defs><style>.cls-1{fill:#4d4d4d;}</style></defs><title>Asset 2</title><g id="Layer_2" data-name="Layer 2"><g id="Layer_1-2" data-name="Layer 1"><path class="cls-1" d="M18.86,63,10.08,44.33Q6,35.55,1.82,26.77a18.66,18.66,0,0,1,3-20.6,19.12,19.12,0,0,1,20.5-5.06A18.77,18.77,0,0,1,37.81,17.66a17.39,17.39,0,0,1-1.55,8.5q-8.44,18.1-17,36.16C19.2,62.48,19.1,62.63,18.86,63Zm0-5.48c.22-.34.31-.45.37-.57,5-10.57,10-21.12,14.91-31.72a15,15,0,0,0,1-10.32C33.38,8.39,29.18,4.2,22.61,2.73S10.25,3.18,6,8.45s-4.81,11.11-2.1,17.2c2.47,5.57,5.17,11,7.77,16.57Z"/><path class="cls-1" d="M27.92,18.06a9,9,0,1,1-9-9A9,9,0,0,1,27.92,18.06Zm-2.43,0a6.58,6.58,0,1,0-6.6,6.6A6.54,6.54,0,0,0,25.49,18Z"/></g></g></svg>