<svg xmlns="http://www.w3.org/2000/svg" viewBox="0 0 83.17 74.17"><defs><style>.cls-1{fill:#00a99d;}</style></defs><title>maintenanceAsset 1</title><g id="Layer_2" data-name="Layer 2"><g id="Layer_1-2" data-name="Layer 1"><path class="cls-1" d="M81.44,64.09,57,39.64V24.08l1,.57A1.73,1.73,0,0,0,60.31,24l2.44-4.17a1.73,1.73,0,0,0-.62-2.36L32.69.24a1.73,1.73,0,0,0-1.75,0L1.49,17.5a1.73,1.73,0,0,0-.62,2.36L3.32,24a1.72,1.72,0,0,0,2.36.62l1-.57V53.54H1.73A1.73,1.73,0,0,0,0,55.26v5.3a1.73,1.73,0,0,0,1.73,1.73H61.91a1.72,1.72,0,0,0,.83-.21L73.1,72.44a5.9,5.9,0,1,0,8.35-8.35ZM79,70a2.45,2.45,0,0,1-3.46,0L48.88,43.34a1.73,1.73,0,0,0-2.09-.27c-3.5,2-7.14,2.13-9.07.2-1.3-1.3-1.69-3.42-1.15-5.75l3.56,3.56c1.61,1.61,4.38.78,7.39-2.24s3.85-5.78,2.24-7.39L46,27.69c2.54-.74,4.86-.39,6.27,1,1.93,1.93,1.85,5.57-.2,9.07a1.73,1.73,0,0,0,.27,2.09L79,66.53A2.45,2.45,0,0,1,79,70ZM3.45,58.84V57H15.6v1.85ZM58.91,19.61l-.7,1.19-25.52-15a1.72,1.72,0,0,0-1.75,0L5.42,20.8l-.7-1.19L31.82,3.73ZM19.05,38.1H28.5v9.2H26.16a1.73,1.73,0,1,0,0,3.45H28.5v8.09H19.05ZM31.82,9.33,53.53,22.06V25.3c-3-2-7.26-1.92-11.39.25a1.73,1.73,0,0,0-.42,2.75l5.33,5.33a8.09,8.09,0,0,1-2,2.77,8.09,8.09,0,0,1-2.77,2l-5.23-5.23a1.73,1.73,0,0,0-2.77.47c-2.23,4.62-1.87,9.25,1,12.08s7.54,3.15,12.07,1l6.2,6.2v.66H32V36.37a1.73,1.73,0,0,0-1.73-1.73H17.33a1.73,1.73,0,0,0-1.73,1.73V53.54H10.1V22.06ZM32,58.84V57H57.65l1.85,1.85Z"/></g></g></svg>