<svg xmlns="http://www.w3.org/2000/svg" viewBox="0 0 73.67 73.67"><defs><style>.cls-1{fill:#00a99d;}</style></defs><title>Asset 6</title><g id="Layer_2" data-name="Layer 2"><g id="Layer_1-2" data-name="Layer 1"><path class="cls-1" d="M19.82,14.28l1.77,3a1.15,1.15,0,0,0,2-1.15l-2.34-4a1.15,1.15,0,0,0-1.57-.42l-4,2.3a1.15,1.15,0,1,0,1.15,2Z"/><path class="cls-1" d="M25,55.74a1.15,1.15,0,0,0,1.57.42l4-2.3a1.15,1.15,0,0,0-1.15-2l-3,1.73-1.77-3a1.15,1.15,0,0,0-2,1.15Z"/><path class="cls-1" d="M9.5,17.55l-4,2.3a1.15,1.15,0,0,0-.42,1.57h0l2.34,4a1.15,1.15,0,0,0,2-1.15l-1.79-3,3-1.73a1.15,1.15,0,1,0-1.15-2Z"/><path class="cls-1" d="M27.29,28.66A6.86,6.86,0,0,0,16.84,32.5a6.13,6.13,0,0,0,.61,4.7,6.07,6.07,0,0,0,2,2.05,1.15,1.15,0,0,0,1.25-1.93A3.77,3.77,0,0,1,19.43,36a3.84,3.84,0,0,1-.37-2.95A4.56,4.56,0,0,1,26,30.53a3.77,3.77,0,0,1,.53.46,1.15,1.15,0,1,0,1.66-1.59A6.15,6.15,0,0,0,27.29,28.66Z"/><path class="cls-1" d="M27.37,11.28a1.15,1.15,0,0,0,1.08-1.56L26.79,5.37a1.15,1.15,0,1,0-2.15.82l1.66,4.35A1.15,1.15,0,0,0,27.37,11.28Z"/><path class="cls-1" d="M73.49,62.29C71.91,59.8,58,38,56,36.09l-.4-.4c-1.82-1.8-3.88-3.83-6.68-3.83h0c-2,0-6,.29-7.78.43L29.14.74A1.15,1.15,0,0,0,27.66.07L5.35,8.45a1.15,1.15,0,0,0-.67,1.48h0l.76,2a1.15,1.15,0,1,0,2.15-.82h0l-.35-.92L27.38,2.63,41.19,39h0a1.15,1.15,0,0,0-.15-.44L22.79,7.19a1.15,1.15,0,0,0-1.57-.42L.58,18.62A1.15,1.15,0,0,0,.15,20.2h0L23.67,60.55l.12.15.07.09.13.1a.58.58,0,0,0,.26.14.84.84,0,0,0,.41.09,1.15,1.15,0,0,0,.29,0L25,61l.19-.08,5-2.88A4,4,0,0,0,32,62.3c.85.58,7.85,4.28,9.86,4.28h0c1.25,0,3.7-1.06,5.13-1.73a17.4,17.4,0,0,0,11.95,8.82h.17a1.15,1.15,0,1,0,.17-2.3A15.07,15.07,0,0,1,48.9,63.62a26,26,0,0,1-1.19-2.8c-.82-2.14-1.66-4.34-3.11-5.6-.77-.67-3.58-2.88-6.83-5.46l-4.65-3.68c-1.6-1.27-6.46-5.13-7.4-6a3.31,3.31,0,0,1-1.15-2.3,3.45,3.45,0,0,1,1.15-2.3c1-1,2.49-.93,4.49.16L49.5,46a1.16,1.16,0,1,0,1.12-2l-6.3-3.4a1.15,1.15,0,0,0-.05-.18L42,34.53c2-.14,5.27-.36,6.94-.37h0c1.84,0,3.41,1.54,5.06,3.17l.41.4C55.74,39,65.36,53.85,71.53,63.52a1.15,1.15,0,1,0,2-1.17l0-.07ZM44.92,60l.67,1.68L46,62.81a17.18,17.18,0,0,1-4.18,1.52c-1.11,0-7.19-3-8.6-3.9a1.73,1.73,0,0,1-.64-2.3A2,2,0,0,1,33.8,57c.77.58,1.67,1.15,2.5,1.66.67.42,1.31.82,1.66,1.09a5.17,5.17,0,0,0,3,.64,22.5,22.5,0,0,0,4-.4Zm-1.07-2.12c-1.38.22-3.92.4-4.48.08s-1.1-.75-1.85-1.23-1.57-1-2.26-1.49l3.3-1.9c2.24,1.77,4,3.17,4.56,3.66a4.25,4.25,0,0,1,.74.87Zm-19.77-24a5.59,5.59,0,0,0-1.81,4,5.5,5.5,0,0,0,1.87,3.9c.71.69,3,2.61,7.58,6.2l4.66,3.68.25.2L25.08,58.41,2.73,20,21.38,9.33,37.45,36.91l-6.14-3.33C27.55,31.55,25.33,32.59,24.08,33.83Z"/></g></g></svg>