<svg xmlns="http://www.w3.org/2000/svg" viewBox="0 0 62.35 62.35"><title>playground</title><g id="Layer_2" data-name="Layer 2"><g id="Layer_1-2" data-name="Layer 1"><path d="M.78,62.35H61.57a.78.78,0,0,0,.78-.78V58.26a.78.78,0,0,0-.78-.78H59.29V26.4h1a.78.78,0,1,0,0-1.56H33.09V14.75a2.47,2.47,0,0,0,.61.08A2.52,2.52,0,0,0,35,14.49a2.49,2.49,0,0,0,1.26-2.22h0A2.51,2.51,0,0,0,35,10.14L18.52.11a.76.76,0,0,0-.25-.1.78.78,0,0,0-.57.1l-16.48,10A2.54,2.54,0,0,0,0,12.29a2.52,2.52,0,0,0,3.14,2.44V24.84H2.55a.78.78,0,1,0,0,1.56h.59V31H1.3a.78.78,0,0,0-.78.78v4.17a.78.78,0,0,0,.78.78H3.18V57.48H.78a.78.78,0,0,0-.78.78v3.31A.78.78,0,0,0,.78,62.35Zm57-4.87H56.54V26.4h1.19Zm-18-8.63V26.4h9.06V49A13.66,13.66,0,0,1,39.75,48.85ZM38.19,26.4V48.2c-.44-.21-.71-.37-.76-.41a.78.78,0,0,0-.82,1.33,16.55,16.55,0,0,0,8,2.14,14.12,14.12,0,0,0,7.51-2.14.78.78,0,1,0-.82-1.33c-.32.2-.64.37-1,.53V26.4H55V57.48H33.09V36.69h1.83a.78.78,0,0,0,.78-.78V31.74a.78.78,0,0,0-.78-.78H33.09V26.4h5.1Zm-9.4,10.29V57.48H7.49V36.69Zm1.56,0h1.19V57.48H30.35ZM12.6,26.4V31H9.43V26.4Zm1.56,0h3.17V31H14.16Zm4.73,0h3.17V31H18.89Zm4.73,0H26.8V31H23.63Zm4.73,0h3.17V31H28.36ZM2,13.13a1,1,0,0,1-.49-.84A1,1,0,0,1,2,11.47L18.11,1.69l16.1,9.79a1,1,0,0,1-1,1.65l-.45-.27a.74.74,0,0,0-.17-.1L18.51,4.35a.78.78,0,0,0-.8,0L3.62,12.76l-.05,0L3,13.12A1,1,0,0,1,2,13.13Zm2.65.8,13.41-8,13.43,8v10.9H4.69Zm0,12.47H7.87V31H4.69ZM2.08,32.52H34.15v2.61H2.08Zm2.66,4.17H5.93V57.48H4.74ZM1.56,59H60.79v1.75H1.56Z"/><path d="M18.11,54.21A7.26,7.26,0,1,0,10.86,47,7.27,7.27,0,0,0,18.11,54.21Zm0-13a5.7,5.7,0,1,1-5.7,5.7A5.71,5.71,0,0,1,18.11,41.26Z"/></g></g></svg>