<svg xmlns="http://www.w3.org/2000/svg" viewBox="0 0 39.14 39.14"><defs><style>.cls-1{fill:#fff;}</style></defs><title>icon3</title><g id="Layer_2" data-name="Layer 2"><g id="_1200px" data-name="1200px"><path class="cls-1" d="M32.11,39.14c-.39-.12-.78-.23-1.16-.36a6.16,6.16,0,0,1-4-6.5c0-.17.05-.35.09-.57l-16-8a20.18,20.18,0,0,1-3.53,1.76A6,6,0,0,1,.2,21.14c-.06-.22-.14-.43-.2-.65V18.65c.12-.39.23-.78.36-1.16A6.12,6.12,0,0,1,10.21,15l.57.53L27,7.46a13.06,13.06,0,0,1,0-2.33,5.94,5.94,0,0,1,4.74-5A2.78,2.78,0,0,0,32.11,0h1.83a6.33,6.33,0,0,1,4.17,2.77,18.65,18.65,0,0,1,1,2.42V7c-.05.17-.12.33-.16.5A6,6,0,0,1,34.54,12a5.92,5.92,0,0,1-6.1-1.86c-.12-.13-.23-.27-.42-.48l-16,8a18.44,18.44,0,0,1,.19,1.9A17.77,17.77,0,0,1,12,21.46l16,8a6.32,6.32,0,0,1,3.65-2.4A6.12,6.12,0,0,1,39,31.6c0,.17.11.33.16.5v1.83a6.33,6.33,0,0,1-2.78,4.18,18.77,18.77,0,0,1-2.42,1ZM36.69,6.07A3.67,3.67,0,1,0,33,9.78,3.68,3.68,0,0,0,36.69,6.07ZM9.78,19.55A3.67,3.67,0,1,0,6.1,23.24,3.68,3.68,0,0,0,9.78,19.55ZM33,29.36A3.67,3.67,0,1,0,36.69,33,3.68,3.68,0,0,0,33,29.36Z"/></g></g></svg>