<svg xmlns="http://www.w3.org/2000/svg" viewBox="0 0 58 59"><defs><style>.cls-1{fill:none;stroke:#000;stroke-width:2px;}</style></defs><title>surau</title><g id="Layer_2" data-name="Layer 2"><g id="Layer_1-2" data-name="Layer 1"><circle class="cls-1" cx="25.5" cy="17.5" r="6.5"/><path class="cls-1" d="M32,33,25.7,48.27a2.78,2.78,0,1,1-5.14-2.1l6.75-16.49A9.23,9.23,0,0,0,28,26.19a4.13,4.13,0,0,1,3.18-4.1A4,4,0,0,1,36,26V39a15.56,15.56,0,0,1-4.3,10.36A1,1,0,0,0,32.47,51H40a4,4,0,0,1,4,4v3H16c-1.62,0-3.14,0-3.74-1.6a4,4,0,0,1,2.33-5.14c.2-.07.42-.16.65-.26a37.11,37.11,0,0,0,5.31-2.78"/><path class="cls-1" d="M0,58H48"/><path class="cls-1" d="M52,58h6"/><path class="cls-1" d="M4,58V23.5a2.5,2.5,0,0,1,5,0"/><path class="cls-1" d="M9,23s-3-7.67,3-12.78S29,7.67,29,0"/><path class="cls-1" d="M54,58V23.5a2.5,2.5,0,0,0-5,0"/><path class="cls-1" d="M49,23s3-7.67-3-12.78S29,7.67,29,0"/></g></g></svg>