<svg xmlns="http://www.w3.org/2000/svg" viewBox="0 0 22.71 22.71"><defs><style>.cls-1{fill:#666;}</style></defs><title>Asset 12</title><g id="Layer_2" data-name="Layer 2"><g id="Layer_1-2" data-name="Layer 1"><path class="cls-1" d="M10.84,0h1L12,0a10.8,10.8,0,0,1,2.73.5,11.27,11.27,0,0,1,6,4.44,11.07,11.07,0,0,1,1.91,5.19c0,.23,0,.47.07.7v1s0,.09,0,.14a10.41,10.41,0,0,1-.27,1.9A11.25,11.25,0,0,1,18,20.53a11,11,0,0,1-5.47,2.11l-.7.07h-1l-.15,0A11,11,0,0,1,7.44,22,11.28,11.28,0,0,1,2,17.74,11.09,11.09,0,0,1,.07,12.56c0-.23,0-.47-.07-.7v-1s0-.09,0-.14a10.76,10.76,0,0,1,.57-3A11.29,11.29,0,0,1,5.94,1.38,10.92,10.92,0,0,1,10.14.07ZM1.63,11.35a9.73,9.73,0,1,0,9.76-9.72A9.75,9.75,0,0,0,1.63,11.35Z"/><path class="cls-1" d="M9.73,14.32l-.09-.1-2.5-2.57A.81.81,0,1,0,6,12.78L9.15,16a1,1,0,0,0,.38.23.8.8,0,0,0,.84-.26l4.74-4.79,1.68-1.7A.79.79,0,0,0,17,8.73a.76.76,0,0,0-.56-.59.81.81,0,0,0-.84.25l-5,5Z"/><path class="cls-1" d="M9.73,14.32l.9-.88,5-5a.81.81,0,0,1,.84-.25.76.76,0,0,1,.56.59.79.79,0,0,1-.23.78l-1.68,1.7L10.36,16a.8.8,0,0,1-.84.26A1,1,0,0,1,9.15,16L6,12.78a.81.81,0,1,1,1.16-1.13l2.5,2.57Z"/></g></g></svg>