<svg xmlns="http://www.w3.org/2000/svg" viewBox="0 0 15.66 16.7"><title>type</title><g id="Layer_2" data-name="Layer 2"><g id="Layer_1-2" data-name="Layer 1"><path d="M.27,16.7A.44.44,0,0,1,0,16.25q0-7.2,0-14.4c0-.35.08-.44.43-.49L5,.69,9.5,0A.36.36,0,0,1,10,.42c0,1.69,0,3.38,0,5.07,0,.15,0,.2.19.24l5.08,1.05c.34.07.42.16.42.5q0,4.47,0,8.93a.48.48,0,0,1-.26.49ZM6.37,16H9.11c.15,0,.14-.09.14-.18q0-5,0-10.06,0-2.4,0-4.8c0-.06,0-.12,0-.19L.71,2c0,.06,0,.11,0,.15Q.71,9,.7,15.82c0,.14,0,.18.18.18H3.54c0-.08,0-.14,0-.2q0-1.46,0-2.92a.36.36,0,0,1,.41-.41h2c.32,0,.44.12.44.45q0,1.42,0,2.83C6.37,15.82,6.37,15.9,6.37,16ZM10,6.4V16h2.09c0-.57,0-1.13,0-1.69,0-.25.14-.42.35-.42s.35.16.35.41c0,.51,0,1,0,1.53,0,.13,0,.18.17.18h1.83c.13,0,.17,0,.17-.17q0-4.12,0-8.25c0-.12,0-.16-.16-.18l-2.2-.46ZM5.65,16a.36.36,0,0,0,0-.06c0-.87,0-1.74,0-2.61,0-.12-.06-.12-.15-.12H4.41c-.13,0-.17,0-.17.17,0,.83,0,1.65,0,2.48,0,0,0,.1,0,.15Z"/><path d="M3.54,5.31c0-.34,0-.69,0-1a.34.34,0,0,1,.38-.39H6a.34.34,0,0,1,.37.38q0,1,0,2.08A.35.35,0,0,1,6,6.73h-2a.35.35,0,0,1-.4-.4C3.54,6,3.54,5.65,3.54,5.31ZM4.25,6H5.66V4.61H4.25Z"/><path d="M3.54,9.57c0-.34,0-.68,0-1a.35.35,0,0,1,.39-.39H6a.35.35,0,0,1,.38.39q0,1,0,2.06A.35.35,0,0,1,6,11h-2a.35.35,0,0,1-.39-.4C3.54,10.26,3.54,9.92,3.54,9.57Zm2.12-.7H4.25v1.41h1.4Z"/><path d="M12.77,9.53c0,.13,0,.27,0,.4a.35.35,0,0,1-.7,0c0-.27,0-.54,0-.82a.35.35,0,0,1,.7,0C12.78,9.28,12.77,9.41,12.77,9.53Z"/><path d="M12.77,11.67c0,.13,0,.27,0,.4a.33.33,0,0,1-.34.33.34.34,0,0,1-.35-.33c0-.27,0-.54,0-.82a.35.35,0,0,1,.7,0c0,.13,0,.27,0,.4Z"/></g></g></svg>