<svg xmlns="http://www.w3.org/2000/svg" viewBox="0 0 53.05 56.57"><defs><style>.cls-1{fill:#4d4d4d;}</style></defs><title>Asset 3</title><g id="Layer_2" data-name="Layer 2"><g id="Layer_1-2" data-name="Layer 1"><path class="cls-1" d="M.91,56.57A1.49,1.49,0,0,1,0,55Q0,30.66,0,6.28C0,5.11.3,4.8,1.46,4.63L16.79,2.33,32.18,0a1.24,1.24,0,0,1,1.58,1.38c0,5.72,0,11.44,0,17.16,0,.51.13.69.65.8,5.74,1.17,11.48,2.38,17.22,3.57,1.16.24,1.43.55,1.43,1.71q0,15.13,0,30.26a1.64,1.64,0,0,1-.87,1.67Zm20.66-2.43c.17,0,.28,0,.39,0,3,0,5.95,0,8.92,0,.51,0,.46-.29.46-.62q0-17,0-34.1,0-8.13,0-16.26c0-.2,0-.4,0-.65L2.39,6.9c0,.21,0,.36,0,.51q0,23.09,0,46.18c0,.46.12.61.6.61,2.78,0,5.57,0,8.35,0H12c0-.28,0-.49,0-.69q0-4.94,0-9.88a1.21,1.21,0,0,1,1.39-1.38h6.72c1.09,0,1.48.4,1.48,1.51q0,4.8,0,9.6C21.57,53.6,21.57,53.86,21.57,54.14ZM33.79,21.68V54.14h7.09c0-1.94,0-3.84,0-5.74,0-.86.47-1.42,1.19-1.42s1.2.54,1.2,1.4c0,1.73,0,3.46,0,5.19,0,.45.09.62.58.62,2.07,0,4.14,0,6.21,0,.43,0,.58-.11.58-.57q0-14,0-27.94c0-.42-.16-.54-.53-.62-2.49-.51-5-1-7.45-1.55ZM19.13,54.08a1.22,1.22,0,0,0,.05-.22c0-2.95,0-5.9,0-8.85,0-.39-.2-.41-.5-.41-1.26,0-2.52,0-3.78,0-.44,0-.57.12-.57.57,0,2.8,0,5.6,0,8.4,0,.16,0,.33,0,.51Z"/><path class="cls-1" d="M12,18c0-1.17,0-2.33,0-3.5a1.16,1.16,0,0,1,1.28-1.31q3.53,0,7.05,0a1.16,1.16,0,0,1,1.25,1.28q0,3.53,0,7.05a1.17,1.17,0,0,1-1.3,1.29H13.32A1.2,1.2,0,0,1,12,21.44C12,20.29,12,19.14,12,18Zm2.41,2.4h4.77V15.61H14.39Z"/><path class="cls-1" d="M12,32.42c0-1.15,0-2.29,0-3.44a1.18,1.18,0,0,1,1.31-1.34h7A1.17,1.17,0,0,1,21.57,29q0,3.5,0,7a1.19,1.19,0,0,1-1.34,1.32H13.29A1.19,1.19,0,0,1,12,35.92C12,34.75,12,33.59,12,32.42Zm7.18-2.36H14.4v4.78h4.75Z"/><path class="cls-1" d="M43.27,32.3c0,.45,0,.9,0,1.35a1.18,1.18,0,0,1-2.36.05c0-.92,0-1.84,0-2.76a1.18,1.18,0,0,1,2.36.06C43.29,31.43,43.27,31.87,43.27,32.3Z"/><path class="cls-1" d="M43.27,39.54c0,.45,0,.9,0,1.35A1.13,1.13,0,0,1,42.1,42a1.15,1.15,0,0,1-1.2-1.1c0-.92,0-1.84,0-2.76a1.18,1.18,0,0,1,2.36,0c0,.45,0,.9,0,1.35Z"/></g></g></svg>