<svg xmlns="http://www.w3.org/2000/svg" viewBox="0 0 52.68 68.43"><title>walkway</title><g id="Layer_2" data-name="Layer 2"><g id="Layer_1-2" data-name="Layer 1"><path d="M31.8,0a6.48,6.48,0,1,0,6.51,6.48A6.49,6.49,0,0,0,31.8,0Zm-1,14.87Zm-1,0H28a14.26,14.26,0,0,0-6.38,1.53h0c-3.89,2.15-6.47,4.09-8.09,6.78C11.66,26.38,11.48,30,11.5,35a2.54,2.54,0,1,0,5.09,0c0-4.8.26-7.32,1.35-9.13.83-1.38,2.37-2.72,5.27-4.42L20.87,32.58l-.2.94a4.55,4.55,0,0,0,.7,3.74l4.42,6.86,1,1.6.22.34,2.47,3.83,7.65,11.85a3.64,3.64,0,1,0,6.11-3.94L29.69,36.75l1.24-5.17.91-3.78c2.6,4.72,8.63,6,12.76,7a2.54,2.54,0,1,0,1.17-5c-4.67-1.1-7.06-2-8.57-3.43A9,9,0,0,1,35,22.88c-.6-1.66-.87-3.49-1.41-5.13v0h0a4.18,4.18,0,0,0-3.83-2.86h0ZM19.61,38.58l-2.2,10.51-7.19,8.3a3.64,3.64,0,1,0,5.5,4.76l7.82-9a3.64,3.64,0,0,0,.82-1.68l.82-4.21ZM0,54.05v2.74H8.12A5.6,5.6,0,0,1,8.7,56l0,0,1.73-2H0Zm25.42,0q-.15.21-.32.41l-2,2.34h8.46l-1.77-2.74Zm17.88,0L45,56.66l.08.13h7.61V54.05ZM0,65.68v2.74H52.68V65.68Z"/></g></g></svg>