<svg xmlns="http://www.w3.org/2000/svg" viewBox="0 0 34.15 34.11"><defs><style>.cls-1{fill:#fff;}</style></defs><title>Asset 13</title><g id="Layer_2" data-name="Layer 2"><g id="Layer_1-2" data-name="Layer 1"><path class="cls-1" d="M1.65,34.11a1.63,1.63,0,0,1-1.17-.48,1.65,1.65,0,0,1,0-2.34L31.33.44a1.65,1.65,0,0,1,2.34,2.34L2.82,33.63A1.63,1.63,0,0,1,1.65,34.11Z"/><path class="cls-1" d="M32.5,34.11a1.63,1.63,0,0,1-1.17-.48L.48,2.78A1.65,1.65,0,0,1,2.82.44L33.67,31.29a1.65,1.65,0,0,1,0,2.34A1.63,1.63,0,0,1,32.5,34.11Z"/></g></g></svg>